<svg data-v-25c0318c="" xmlns="http://www.w3.org/2000/svg" fill="none" viewBox="0 0 95 11" class="preview-toolbar-logo-full" aria-label="S/LivePreview"><path fill="currentColor" fill-rule="evenodd" d="M16.307 3.16a1.22 1.22 0 0 0-.51-.69q-.486-.33-1.264-.331-.546 0-.937.16-.391.159-.599.431-.207.273-.212.623 0 .29.137.505.141.213.381.364.24.146.533.245.292.1.59.169l.904.218q.547.123 1.051.332.51.21.91.527.405.32.64.769.237.45.236 1.055a2.46 2.46 0 0 1-.433 1.442q-.434.618-1.254.968-.816.346-1.975.346-1.126 0-1.956-.337-.825-.336-1.291-.982-.462-.646-.5-1.573h1.72q.039.486.312.81.274.322.711.481.444.16.99.16.57 0 1-.164a1.6 1.6 0 0 0 .678-.464q.245-.3.25-.7a.87.87 0 0 0-.222-.6 1.6 1.6 0 0 0-.608-.401 6 6 0 0 0-.905-.291l-1.098-.273q-1.192-.296-1.885-.896-.688-.604-.688-1.605 0-.824.462-1.442.465-.618 1.268-.96.801-.345 1.814-.345 1.027 0 1.8.346.778.34 1.221.95.375.512.443 1.154zM10.758 1.878l-8.672 8.368L.84 9.043 9.512.676z" clip-rule="evenodd"></path><path fill="currentColor" d="M27.997 9.5V.773h1.58v7.402h3.845V9.5zm6.249 0V2.955h1.542V9.5zm.775-7.474a.9.9 0 0 1-.63-.243.78.78 0 0 1-.265-.593q0-.35.265-.592a.9.9 0 0 1 .63-.247q.37 0 .63.247.265.243.265.592 0 .345-.264.593a.9.9 0 0 1-.63.243m7.72.929L40.411 9.5h-1.705l-2.331-6.545h1.645l1.504 4.862h.068L41.1 2.955zm3.263 6.673q-.985 0-1.7-.41a2.77 2.77 0 0 1-1.096-1.167q-.383-.758-.383-1.785 0-1.011.383-1.773A2.9 2.9 0 0 1 44.291 3.3q.695-.43 1.632-.43.605 0 1.142.195.54.192.954.597.418.405.657 1.031.238.623.238 1.483v.473H43.55V5.61h3.886a1.66 1.66 0 0 0-.191-.788 1.4 1.4 0 0 0-.525-.55q-.332-.2-.775-.2-.472 0-.831.23-.358.226-.558.597-.196.367-.2.805v.908q0 .57.208.98.21.405.584.622.375.213.878.213.337 0 .61-.094.272-.098.472-.285a1.2 1.2 0 0 0 .303-.465l1.44.162q-.136.571-.52.997-.378.422-.971.657-.593.23-1.355.23m6.3-.128V.773h3.273q1.005 0 1.687.375A2.5 2.5 0 0 1 58.3 2.179q.353.652.353 1.483 0 .84-.353 1.491a2.53 2.53 0 0 1-1.044 1.027q-.69.372-1.7.371h-2.17v-1.3h1.956q.588 0 .963-.204a1.3 1.3 0 0 0 .554-.563 1.8 1.8 0 0 0 .184-.822q0-.465-.184-.818a1.25 1.25 0 0 0-.558-.55q-.375-.2-.967-.2h-1.45V9.5zm7.174 0V2.955h1.496v1.09h.068q.18-.566.614-.873a1.7 1.7 0 0 1 1.001-.311q.128 0 .286.013.162.007.268.03v1.418a1.6 1.6 0 0 0-.31-.06q-.21-.03-.406-.029a1.56 1.56 0 0 0-.758.183 1.34 1.34 0 0 0-.524.499 1.4 1.4 0 0 0-.192.737V9.5zm6.906.128q-.984 0-1.7-.41a2.77 2.77 0 0 1-1.095-1.167q-.384-.758-.384-1.785 0-1.011.384-1.773.388-.768 1.082-1.193.695-.43 1.632-.43.606 0 1.142.195.542.192.955.597.417.405.656 1.031.24.623.239 1.483v.473H63.93V5.61h3.886a1.66 1.66 0 0 0-.192-.788 1.4 1.4 0 0 0-.524-.55q-.332-.2-.775-.2-.474 0-.831.23-.358.226-.558.597-.197.367-.2.805v.908q0 .57.208.98.21.405.584.622.374.213.878.213.336 0 .61-.094.271-.098.472-.285a1.2 1.2 0 0 0 .303-.465l1.44.162q-.136.571-.52.997-.38.422-.971.657-.592.23-1.356.23m9.395-6.673L73.449 9.5h-1.706l-2.33-6.545h1.645l1.504 4.862h.068l1.508-4.862zm.588 6.545V2.955h1.542V9.5zm.775-7.474a.9.9 0 0 1-.63-.243.78.78 0 0 1-.265-.593q0-.35.264-.592a.9.9 0 0 1 .631-.247q.371 0 .63.247.265.243.265.592 0 .345-.264.593a.9.9 0 0 1-.63.243m4.771 7.602q-.984 0-1.7-.41a2.77 2.77 0 0 1-1.095-1.167q-.384-.758-.384-1.785 0-1.011.384-1.773A2.9 2.9 0 0 1 80.2 3.3q.694-.43 1.632-.43.606 0 1.142.195.542.192.955.597.417.405.656 1.031.24.623.239 1.483v.473h-5.365V5.61h3.886a1.66 1.66 0 0 0-.192-.788 1.4 1.4 0 0 0-.524-.55q-.332-.2-.776-.2-.473 0-.83.23-.359.226-.559.597-.195.367-.2.805v.908q0 .57.209.98.209.405.584.622.375.213.877.213.337 0 .61-.094.273-.098.473-.285.2-.188.302-.465l1.44.162q-.135.571-.52.997-.379.422-.97.657-.593.23-1.356.23m5.051-.128-1.849-6.545h1.572l1.151 4.602h.06l1.176-4.602h1.555l1.176 4.576h.064l1.134-4.576h1.576L92.727 9.5h-1.607l-1.227-4.423h-.09L88.575 9.5z"></path></svg>